<svg xmlns="http://www.w3.org/2000/svg" width="24" height="24" fill="currentColor" aria-hidden="true" style="pointer-events:none;display:inherit;width:100%;height:100%"><path fill-rule="evenodd" d="M12 20.5c1.894 0 3.643-.62 5.055-1.666a5.5 5.5 0 0 0-10.064-.105.755.755 0 0 1-.054.099A8.462 8.462 0 0 0 12 20.5Zm4.079-5.189a7 7 0 0 1 2.142 2.48 8.5 8.5 0 1 0-12.443 0 7 7 0 0 1 10.3-2.48ZM12 22c5.523 0 10-4.477 10-10S17.523 2 12 2 2 6.477 2 12s4.477 10 10 10Zm2-12.5a2 2 0 1 1-4 0 2 2 0 0 1 4 0Zm1.5 0a3.5 3.5 0 1 1-7 0 3.5 3.5 0 0 1 7 0Z" clip-rule="evenodd"/></svg>